<svg width="20" height="20" viewBox="0 0 20 20" fill="none" xmlns="http://www.w3.org/2000/svg">
<path d="M8.292 0.396014C8.416 0.520014 8.498 0.650014 8.55 0.746014C8.629 0.891014 8.688 1.04601 8.735 1.18601C8.825 1.45401 8.917 1.81101 9.022 2.21801L12.702 16.458L14.31 10.4L14.323 10.35L14.326 10.339C14.37 10.169 14.443 9.88501 14.609 9.64601C14.7599 9.42612 14.9666 9.25042 15.208 9.13701C15.399 9.04701 15.577 9.02001 15.708 9.01001C15.813 9.00001 15.928 9.00101 16.016 9.00101H19C19.2652 9.00101 19.5196 9.10637 19.7071 9.29391C19.8946 9.48144 20 9.7358 20 10.001C20 10.2662 19.8946 10.5206 19.7071 10.7081C19.5196 10.8957 19.2652 11.001 19 11.001H16.22L14.416 17.796C14.308 18.202 14.214 18.558 14.122 18.826C14.0711 18.9775 14.0083 19.1246 13.934 19.266C13.8259 19.4676 13.67 19.6396 13.48 19.767C13.2447 19.9201 12.9698 20.0011 12.6891 20.0001C12.4084 19.999 12.1341 19.9159 11.9 19.761C11.711 19.632 11.5565 19.4586 11.45 19.256C11.3767 19.1142 11.3148 18.9667 11.265 18.815C11.175 18.547 11.083 18.19 10.978 17.783L7.298 3.54301L5.69 9.60001L5.677 9.65001L5.674 9.66101C5.63 9.83101 5.556 10.115 5.391 10.354C5.24013 10.5739 5.03336 10.7496 4.792 10.863C4.601 10.953 4.423 10.98 4.292 10.99C4.187 11 4.072 10.999 3.984 10.999H1C0.734784 10.999 0.48043 10.8937 0.292893 10.7061C0.105357 10.5186 0 10.2642 0 9.99901C0 9.7338 0.105357 9.47944 0.292893 9.29191C0.48043 9.10437 0.734784 8.99901 1 8.99901H3.78L5.584 2.20301C5.692 1.79801 5.786 1.44101 5.878 1.17501C5.926 1.03501 5.986 0.880014 6.066 0.735014C6.174 0.533067 6.32989 0.360696 6.52 0.233014C6.79052 0.0567178 7.11259 -0.0231915 7.43414 0.0062055C7.75569 0.0356025 8.05793 0.173588 8.292 0.396014Z" fill="black" style="fill:black;fill-opacity:1;"/>
</svg>
