<svg width="25" height="25" viewBox="0 0 25 25" fill="none" xmlns="http://www.w3.org/2000/svg">
<path d="M12.5 11.5625C9.66245 11.5625 9.08745 7.2625 9.08745 7.2625C8.74995 5.025 9.77495 2.5 12.4625 2.5C15.1625 2.5 16.1875 5.025 15.85 7.2625C15.85 7.2625 15.3375 11.5625 12.5 11.5625ZM12.5 14.775L15.9 12.5C18.8875 12.5 21.55 15.4125 21.55 18.1625V21.275C21.55 21.275 16.9875 22.6875 12.5 22.6875C7.93745 22.6875 3.44995 21.275 3.44995 21.275V18.1625C3.44995 15.35 5.87495 12.5625 9.03745 12.5625L12.5 14.775Z" fill="#0C0E5D" style="fill:#0C0E5D;fill:color(display-p3 0.0471 0.0549 0.3647);fill-opacity:1;"/>
</svg>
