<svg width="17" height="17" viewBox="0 0 17 17" fill="none" xmlns="http://www.w3.org/2000/svg">
<path d="M12.2125 12.2125C11.1441 13.0269 9.84319 13.478 8.5 13.5C4.125 13.5 1.625 8.5 1.625 8.5C2.40243 7.05118 3.48071 5.78538 4.7875 4.7875M7.1875 3.65C7.61771 3.5493 8.05817 3.49896 8.5 3.5C12.875 3.5 15.375 8.5 15.375 8.5C14.9956 9.20975 14.5432 9.87796 14.025 10.4937M9.825 9.825C9.65334 10.0092 9.44634 10.157 9.21635 10.2595C8.98635 10.3619 8.73806 10.417 8.48631 10.4215C8.23455 10.4259 7.98448 10.3796 7.75101 10.2853C7.51754 10.191 7.30545 10.0506 7.1274 9.8726C6.94936 9.69455 6.809 9.48246 6.71469 9.24899C6.62039 9.01552 6.57408 8.76545 6.57852 8.51369C6.58296 8.26194 6.63807 8.01365 6.74055 7.78365C6.84303 7.55366 6.99078 7.34666 7.175 7.175M1.625 1.625L15.375 15.375" stroke="#0C0E5D" style="stroke:#0C0E5D;stroke:color(display-p3 0.0471 0.0549 0.3647);stroke-opacity:1;" stroke-width="2" stroke-linecap="round" stroke-linejoin="round"/>
</svg>

