<svg width="241" height="210" viewBox="0 0 241 210" fill="none" xmlns="http://www.w3.org/2000/svg">
<g filter="url(#filter0_d_207_26)">
<path d="M95.87 15.6146C110.906 6.08199 130.094 6.08201 145.13 15.6146L209.511 56.4304C227.868 68.0677 235.574 90.9648 227.99 111.333L206.125 170.052C199.42 188.058 182.23 200 163.016 200H120.5H77.9837C58.7699 200 41.5801 188.058 34.8753 170.052L13.0103 111.333C5.42596 90.9648 13.1324 68.0677 31.4887 56.4304L95.87 15.6146Z" fill="#E4E8F5" style="fill:#E4E8F5;fill:color(display-p3 0.8941 0.9098 0.9608);fill-opacity:1;"/>
<path d="M95.335 14.7705C110.698 5.0307 130.302 5.03071 145.665 14.7705L210.047 55.5859C228.802 67.4763 236.676 90.8708 228.927 111.682L207.062 170.401C200.211 188.798 182.648 201 163.017 201H77.9834C58.3522 201 40.7891 188.798 33.9385 170.401L12.0732 111.682C4.32412 90.8708 12.1979 67.4763 30.9531 55.5859L95.335 14.7705Z" stroke="black" style="stroke:black;stroke-opacity:1;" stroke-width="2"/>
</g>
<path d="M74.657 120H69.7138L77.2457 98.1818H83.1903L90.7116 120H85.7685L80.3033 103.168H80.1328L74.657 120ZM74.348 111.424H86.0241V115.025H74.348V111.424ZM101.072 120H93.3377V98.1818H101.136C103.331 98.1818 105.22 98.6186 106.804 99.4922C108.387 100.359 109.605 101.605 110.458 103.232C111.317 104.858 111.747 106.804 111.747 109.07C111.747 111.342 111.317 113.295 110.458 114.929C109.605 116.562 108.38 117.816 106.782 118.69C105.191 119.563 103.288 120 101.072 120ZM97.9506 116.048H100.88C102.244 116.048 103.391 115.806 104.321 115.323C105.259 114.833 105.962 114.077 106.431 113.054C106.907 112.024 107.145 110.696 107.145 109.07C107.145 107.457 106.907 106.14 106.431 105.117C105.962 104.094 105.262 103.342 104.332 102.859C103.402 102.376 102.255 102.134 100.891 102.134H97.9506V116.048ZM115.164 98.1818H120.853L126.861 112.841H127.117L133.126 98.1818H138.814V120H134.34V105.799H134.159L128.513 119.893H125.466L119.819 105.746H119.638V120H115.164V98.1818ZM147.228 98.1818V120H142.615V98.1818H147.228ZM169.273 98.1818V120H165.288L155.796 106.268H155.636V120H151.023V98.1818H155.072L164.489 111.903H164.681V98.1818H169.273Z" fill="black" style="fill:black;fill-opacity:1;"/>
<path d="M121 55.5C116.46 55.5 115.54 48.62 115.54 48.62C115 45.04 116.64 41 120.94 41C125.26 41 126.9 45.04 126.36 48.62C126.36 48.62 125.54 55.5 121 55.5ZM121 60.64L126.44 57C131.22 57 135.48 61.66 135.48 66.06V71.04C135.48 71.04 128.18 73.3 121 73.3C113.7 73.3 106.52 71.04 106.52 71.04V66.06C106.52 61.56 110.4 57.1 115.46 57.1L121 60.64Z" fill="black" style="fill:black;fill-opacity:1;"/>
<defs>
<filter id="filter0_d_207_26" x="4.11353" y="6.46521" width="232.773" height="203.535" filterUnits="userSpaceOnUse" color-interpolation-filters="sRGB">
<feFlood flood-opacity="0" result="BackgroundImageFix"/>
<feColorMatrix in="SourceAlpha" type="matrix" values="0 0 0 0 0 0 0 0 0 0 0 0 0 0 0 0 0 0 127 0" result="hardAlpha"/>
<feOffset dy="4"/>
<feGaussianBlur stdDeviation="2"/>
<feComposite in2="hardAlpha" operator="out"/>
<feColorMatrix type="matrix" values="0 0 0 0 0 0 0 0 0 0 0 0 0 0 0 0 0 0 0.25 0"/>
<feBlend mode="normal" in2="BackgroundImageFix" result="effect1_dropShadow_207_26"/>
<feBlend mode="normal" in="SourceGraphic" in2="effect1_dropShadow_207_26" result="shape"/>
</filter>
</defs>
</svg>
