<svg width="241" height="210" viewBox="0 0 241 210" fill="none" xmlns="http://www.w3.org/2000/svg">
<g filter="url(#filter0_d_207_25)">
<path d="M95.87 15.6146C110.906 6.08199 130.094 6.08201 145.13 15.6146L209.511 56.4304C227.868 68.0677 235.574 90.9648 227.99 111.333L206.125 170.052C199.42 188.058 182.23 200 163.016 200H120.5H77.9837C58.7699 200 41.5801 188.058 34.8753 170.052L13.0103 111.333C5.42596 90.9648 13.1324 68.0677 31.4887 56.4304L95.87 15.6146Z" fill="#E4E8F5" style="fill:#E4E8F5;fill:color(display-p3 0.8941 0.9098 0.9608);fill-opacity:1;"/>
<path d="M95.335 14.7705C110.698 5.0307 130.302 5.03071 145.665 14.7705L210.047 55.5859C228.802 67.4763 236.676 90.8708 228.927 111.682L207.062 170.401C200.211 188.798 182.648 201 163.017 201H77.9834C58.3522 201 40.7891 188.798 33.9385 170.401L12.0732 111.682C4.32412 90.8708 12.1979 67.4763 30.9531 55.5859L95.335 14.7705Z" stroke="black" style="stroke:black;stroke-opacity:1;" stroke-width="2"/>
</g>
<path d="M31.8963 113V91.1818H40.5043C42.152 91.1818 43.5582 91.4766 44.723 92.0661C45.8949 92.6484 46.7862 93.4759 47.397 94.5483C48.0149 95.6136 48.3239 96.8672 48.3239 98.3089C48.3239 99.7578 48.0114 101.004 47.3864 102.048C46.7614 103.085 45.8558 103.881 44.6697 104.435C43.4908 104.989 42.0632 105.266 40.3871 105.266H34.6236V101.558H39.6413C40.522 101.558 41.2536 101.437 41.8359 101.196C42.4183 100.955 42.8516 100.592 43.1357 100.109C43.4268 99.6264 43.5724 99.0263 43.5724 98.3089C43.5724 97.5845 43.4268 96.9737 43.1357 96.4766C42.8516 95.9794 42.4148 95.603 41.8253 95.3473C41.2429 95.0845 40.5078 94.9531 39.62 94.9531H36.5092V113H31.8963ZM43.679 103.071L49.1016 113H44.0092L38.7038 103.071H43.679ZM51.5838 113V91.1818H66.2855V94.9851H56.1967V100.184H65.5291V103.987H56.1967V109.197H66.3281V113H51.5838ZM81.7889 97.4567C81.7037 96.5973 81.3379 95.9297 80.6916 95.4538C80.0453 94.978 79.1681 94.7401 78.0602 94.7401C77.3074 94.7401 76.6717 94.8466 76.1532 95.0597C75.6348 95.2656 75.237 95.5533 74.96 95.9226C74.6902 96.2919 74.5552 96.7109 74.5552 97.1797C74.541 97.5703 74.6227 97.9112 74.8002 98.2024C74.9849 98.4936 75.237 98.7457 75.5566 98.9588C75.8762 99.1648 76.2456 99.3459 76.6646 99.5021C77.0836 99.6513 77.5311 99.7791 78.0069 99.8857L79.9672 100.354C80.9189 100.567 81.7924 100.852 82.5879 101.207C83.3833 101.562 84.0723 101.999 84.6547 102.517C85.237 103.036 85.688 103.646 86.0076 104.349C86.3343 105.053 86.5012 105.859 86.5083 106.768C86.5012 108.103 86.1603 109.261 85.4856 110.241C84.818 111.214 83.8521 111.97 82.5879 112.51C81.3308 113.043 79.8145 113.309 78.0389 113.309C76.2775 113.309 74.7434 113.039 73.4366 112.499C72.1369 111.96 71.1213 111.161 70.3897 110.102C69.6653 109.037 69.2853 107.719 69.2498 106.15H73.7136C73.7633 106.881 73.9728 107.492 74.3422 107.982C74.7186 108.465 75.2193 108.831 75.8443 109.08C76.4764 109.321 77.1902 109.442 77.9856 109.442C78.7669 109.442 79.4451 109.328 80.0204 109.101C80.6028 108.874 81.0538 108.558 81.3734 108.153C81.693 107.748 81.8528 107.283 81.8528 106.757C81.8528 106.267 81.7072 105.855 81.416 105.521C81.1319 105.187 80.7129 104.903 80.1589 104.669C79.612 104.435 78.9409 104.222 78.1454 104.03L75.7697 103.433C73.9302 102.986 72.4778 102.286 71.4125 101.335C70.3471 100.383 69.818 99.1009 69.8251 97.4886C69.818 96.1676 70.1696 95.0135 70.8798 94.0263C71.5971 93.0391 72.5808 92.2685 73.8308 91.7145C75.0808 91.1605 76.5012 90.8835 78.0922 90.8835C79.7115 90.8835 81.1248 91.1605 82.3322 91.7145C83.5467 92.2685 84.4913 93.0391 85.166 94.0263C85.8407 95.0135 86.1887 96.157 86.21 97.4567H81.7889ZM89.6112 113V91.1818H98.2191C99.8739 91.1818 101.284 91.4979 102.449 92.13C103.613 92.755 104.501 93.625 105.112 94.7401C105.73 95.848 106.039 97.1264 106.039 98.5753C106.039 100.024 105.726 101.303 105.101 102.411C104.476 103.518 103.571 104.381 102.385 104.999C101.206 105.617 99.7781 105.926 98.1019 105.926H92.6154V102.229H97.3562C98.244 102.229 98.9755 102.077 99.5508 101.771C100.133 101.459 100.566 101.029 100.85 100.482C101.142 99.9283 101.287 99.2926 101.287 98.5753C101.287 97.8509 101.142 97.2187 100.85 96.679C100.566 96.1321 100.133 95.7095 99.5508 95.4112C98.9684 95.1058 98.2298 94.9531 97.3349 94.9531H94.2241V113H89.6112ZM129.085 102.091C129.085 104.47 128.634 106.494 127.732 108.163C126.837 109.832 125.615 111.107 124.067 111.988C122.526 112.862 120.793 113.298 118.868 113.298C116.929 113.298 115.189 112.858 113.648 111.977C112.107 111.097 110.889 109.822 109.994 108.153C109.099 106.484 108.651 104.463 108.651 102.091C108.651 99.7116 109.099 97.6875 109.994 96.0185C110.889 94.3494 112.107 93.0781 113.648 92.2045C115.189 91.3239 116.929 90.8835 118.868 90.8835C120.793 90.8835 122.526 91.3239 124.067 92.2045C125.615 93.0781 126.837 94.3494 127.732 96.0185C128.634 97.6875 129.085 99.7116 129.085 102.091ZM124.408 102.091C124.408 100.55 124.177 99.25 123.715 98.1918C123.261 97.1335 122.618 96.331 121.787 95.7841C120.956 95.2372 119.983 94.9638 118.868 94.9638C117.753 94.9638 116.78 95.2372 115.949 95.7841C115.118 96.331 114.472 97.1335 114.01 98.1918C113.556 99.25 113.328 100.55 113.328 102.091C113.328 103.632 113.556 104.932 114.01 105.99C114.472 107.048 115.118 107.851 115.949 108.398C116.78 108.945 117.753 109.218 118.868 109.218C119.983 109.218 120.956 108.945 121.787 108.398C122.618 107.851 123.261 107.048 123.715 105.99C124.177 104.932 124.408 103.632 124.408 102.091ZM150.751 91.1818V113H146.767L137.275 99.2678H137.115V113H132.502V91.1818H136.55L145.968 104.903H146.159V91.1818H150.751ZM162.297 113H154.562V91.1818H162.361C164.555 91.1818 166.444 91.6186 168.028 92.4922C169.612 93.3587 170.83 94.6051 171.682 96.2315C172.542 97.858 172.971 99.804 172.971 102.07C172.971 104.342 172.542 106.295 171.682 107.929C170.83 109.562 169.605 110.816 168.007 111.69C166.416 112.563 164.513 113 162.297 113ZM159.175 109.048H162.105C163.469 109.048 164.616 108.806 165.546 108.323C166.483 107.833 167.187 107.077 167.655 106.054C168.131 105.024 168.369 103.696 168.369 102.07C168.369 100.457 168.131 99.1399 167.655 98.1172C167.187 97.0945 166.487 96.3416 165.557 95.8587C164.626 95.3757 163.479 95.1342 162.116 95.1342H159.175V109.048ZM176.388 113V91.1818H191.09V94.9851H181.001V100.184H190.334V103.987H181.001V109.197H191.133V113H176.388ZM194.758 113V91.1818H203.366C205.013 91.1818 206.42 91.4766 207.584 92.0661C208.756 92.6484 209.648 93.4759 210.258 94.5483C210.876 95.6136 211.185 96.8672 211.185 98.3089C211.185 99.7578 210.873 101.004 210.248 102.048C209.623 103.085 208.717 103.881 207.531 104.435C206.352 104.989 204.925 105.266 203.248 105.266H197.485V101.558H202.503C203.383 101.558 204.115 101.437 204.697 101.196C205.28 100.955 205.713 100.592 205.997 100.109C206.288 99.6264 206.434 99.0263 206.434 98.3089C206.434 97.5845 206.288 96.9737 205.997 96.4766C205.713 95.9794 205.276 95.603 204.687 95.3473C204.104 95.0845 203.369 94.9531 202.481 94.9531H199.371V113H194.758ZM206.54 103.071L211.963 113H206.871L201.565 103.071H206.54Z" fill="black" style="fill:black;fill-opacity:1;"/>
<path d="M136 47.3333C136.884 47.3333 137.732 47.6845 138.357 48.3096C138.982 48.9348 139.333 49.7826 139.333 50.6667V57.3333C139.333 58.2174 138.982 59.0652 138.357 59.6904C137.732 60.3155 136.884 60.6667 136 60.6667H134.23C133.824 63.889 132.256 66.8523 129.82 69.0004C127.384 71.1485 124.248 72.3336 121 72.3333V69C123.652 69 126.196 67.9464 128.071 66.0711C129.946 64.1957 131 61.6522 131 59V49C131 46.3478 129.946 43.8043 128.071 41.9289C126.196 40.0536 123.652 39 121 39C118.348 39 115.804 40.0536 113.929 41.9289C112.054 43.8043 111 46.3478 111 49V60.6667H106C105.116 60.6667 104.268 60.3155 103.643 59.6904C103.018 59.0652 102.667 58.2174 102.667 57.3333V50.6667C102.667 49.7826 103.018 48.9348 103.643 48.3096C104.268 47.6845 105.116 47.3333 106 47.3333H107.77C108.177 44.1115 109.745 41.1488 112.181 39.0011C114.617 36.8535 117.753 35.6685 121 35.6685C124.247 35.6685 127.383 36.8535 129.819 39.0011C132.255 41.1488 133.823 44.1115 134.23 47.3333H136ZM113.933 60.3083L115.7 57.4817C117.288 58.4769 119.126 59.0032 121 59C122.874 59.0032 124.712 58.4769 126.3 57.4817L128.067 60.3083C125.949 61.6355 123.499 62.3374 121 62.3333C118.501 62.3374 116.051 61.6355 113.933 60.3083Z" fill="black" style="fill:black;fill-opacity:1;"/>
<defs>
<filter id="filter0_d_207_25" x="4.11353" y="6.46521" width="232.773" height="203.535" filterUnits="userSpaceOnUse" color-interpolation-filters="sRGB">
<feFlood flood-opacity="0" result="BackgroundImageFix"/>
<feColorMatrix in="SourceAlpha" type="matrix" values="0 0 0 0 0 0 0 0 0 0 0 0 0 0 0 0 0 0 127 0" result="hardAlpha"/>
<feOffset dy="4"/>
<feGaussianBlur stdDeviation="2"/>
<feComposite in2="hardAlpha" operator="out"/>
<feColorMatrix type="matrix" values="0 0 0 0 0 0 0 0 0 0 0 0 0 0 0 0 0 0 0.25 0"/>
<feBlend mode="normal" in2="BackgroundImageFix" result="effect1_dropShadow_207_25"/>
<feBlend mode="normal" in="SourceGraphic" in2="effect1_dropShadow_207_25" result="shape"/>
</filter>
</defs>
</svg>
