<svg width="241" height="210" viewBox="0 0 241 210" fill="none" xmlns="http://www.w3.org/2000/svg">
<g filter="url(#filter0_d_199_41)">
<path d="M95.87 15.6146C110.906 6.08199 130.094 6.08201 145.13 15.6146L209.511 56.4304C227.868 68.0677 235.574 90.9648 227.99 111.333L206.125 170.052C199.42 188.058 182.23 200 163.016 200H120.5H77.9837C58.7699 200 41.5801 188.058 34.8753 170.052L13.0103 111.333C5.42596 90.9648 13.1324 68.0677 31.4887 56.4304L95.87 15.6146Z" fill="#E4E8F5" style="fill:#E4E8F5;fill:color(display-p3 0.8941 0.9098 0.9608);fill-opacity:1;"/>
<path d="M95.335 14.7705C110.698 5.0307 130.302 5.03071 145.665 14.7705L210.047 55.5859C228.802 67.4763 236.676 90.8708 228.927 111.682L207.062 170.401C200.211 188.798 182.648 201 163.017 201H77.9834C58.3522 201 40.7891 188.798 33.9385 170.401L12.0732 111.682C4.32412 90.8708 12.1979 67.4763 30.9531 55.5859L95.335 14.7705Z" stroke="black" style="stroke:black;stroke-opacity:1;" stroke-width="2"/>
</g>
<path d="M70.657 120H65.7138L73.2457 98.1818H79.1903L86.7116 120H81.7685L76.3033 103.168H76.1328L70.657 120ZM70.348 111.424H82.0241V115.025H70.348V111.424ZM102.78 105.234C102.631 104.716 102.421 104.258 102.151 103.86C101.881 103.455 101.551 103.114 101.16 102.837C100.777 102.553 100.336 102.337 99.8393 102.188C99.3493 102.038 98.8059 101.964 98.2093 101.964C97.0943 101.964 96.1142 102.241 95.269 102.795C94.4309 103.349 93.7775 104.155 93.3088 105.213C92.84 106.264 92.6056 107.55 92.6056 109.07C92.6056 110.589 92.8365 111.882 93.2981 112.947C93.7598 114.013 94.4132 114.826 95.2583 115.387C96.1035 115.941 97.1014 116.218 98.252 116.218C99.296 116.218 100.187 116.033 100.926 115.664C101.672 115.288 102.24 114.759 102.631 114.077C103.028 113.395 103.227 112.589 103.227 111.658L104.165 111.797H98.5396V108.324H107.67V111.072C107.67 112.99 107.265 114.638 106.455 116.016C105.645 117.386 104.53 118.445 103.11 119.19C101.689 119.929 100.063 120.298 98.2306 120.298C96.1852 120.298 94.3883 119.847 92.84 118.945C91.2917 118.036 90.0843 116.747 89.2179 115.078C88.3585 113.402 87.9288 111.413 87.9288 109.112C87.9288 107.344 88.1845 105.767 88.6958 104.382C89.2143 102.99 89.9387 101.811 90.8691 100.845C91.7995 99.8793 92.8826 99.1442 94.1184 98.6399C95.3542 98.1357 96.693 97.8835 98.1348 97.8835C99.3706 97.8835 100.521 98.0646 101.586 98.4268C102.652 98.782 103.596 99.2862 104.42 99.9396C105.251 100.593 105.93 101.371 106.455 102.273C106.981 103.168 107.318 104.155 107.467 105.234H102.78ZM111.135 120V98.1818H125.836V101.985H115.748V107.184H125.08V110.987H115.748V116.197H125.879V120H111.135ZM147.753 98.1818V120H143.769L134.276 106.268H134.117V120H129.504V98.1818H133.552L142.97 111.903H143.161V98.1818H147.753ZM150.733 101.985V98.1818H168.652V101.985H161.973V120H157.413V101.985H150.733Z" fill="black" style="fill:black;fill-opacity:1;"/>
<defs>
<filter id="filter0_d_199_41" x="4.11359" y="6.46521" width="232.773" height="203.535" filterUnits="userSpaceOnUse" color-interpolation-filters="sRGB">
<feFlood flood-opacity="0" result="BackgroundImageFix"/>
<feColorMatrix in="SourceAlpha" type="matrix" values="0 0 0 0 0 0 0 0 0 0 0 0 0 0 0 0 0 0 127 0" result="hardAlpha"/>
<feOffset dy="4"/>
<feGaussianBlur stdDeviation="2"/>
<feComposite in2="hardAlpha" operator="out"/>
<feColorMatrix type="matrix" values="0 0 0 0 0 0 0 0 0 0 0 0 0 0 0 0 0 0 0.25 0"/>
<feBlend mode="normal" in2="BackgroundImageFix" result="effect1_dropShadow_199_41"/>
<feBlend mode="normal" in="SourceGraphic" in2="effect1_dropShadow_199_41" result="shape"/>
</filter>
</defs>
</svg>
