<svg width="21" height="19" viewBox="0 0 21 19" fill="none" xmlns="http://www.w3.org/2000/svg">
<path d="M17.7916 6.33334C16.9236 6.33334 16.1857 6.02952 15.5781 5.42188C14.9705 4.81425 14.6666 4.0764 14.6666 3.20834C14.6666 2.34029 14.9705 1.60244 15.5781 0.994802C16.1857 0.387163 16.9236 0.0833435 17.7916 0.0833435C18.6597 0.0833435 19.3975 0.387163 20.0052 0.994802C20.6128 1.60244 20.9166 2.34029 20.9166 3.20834C20.9166 4.0764 20.6128 4.81425 20.0052 5.42188C19.3975 6.02952 18.6597 6.33334 17.7916 6.33334ZM2.16665 18.8333C1.59373 18.8333 1.10328 18.6294 0.695292 18.2214C0.287306 17.8134 0.083313 17.3229 0.083313 16.75V4.25001C0.083313 3.67709 0.287306 3.18664 0.695292 2.77866C1.10328 2.37067 1.59373 2.16668 2.16665 2.16668H12.6875C12.618 2.5139 12.5833 2.86112 12.5833 3.20834C12.5833 3.55557 12.618 3.90279 12.6875 4.25001C12.809 4.80557 13.0087 5.32206 13.2864 5.79949C13.5642 6.27692 13.9028 6.69793 14.3021 7.06251L10.5 9.45834L2.16665 4.25001V6.33334L10.5 11.5417L15.9948 8.10418C16.2899 8.20834 16.585 8.28647 16.8802 8.33855C17.1753 8.39064 17.4791 8.41668 17.7916 8.41668C18.3472 8.41668 18.8941 8.32987 19.4323 8.15626C19.9705 7.98265 20.4653 7.72223 20.9166 7.37501V16.75C20.9166 17.3229 20.7127 17.8134 20.3047 18.2214C19.8967 18.6294 19.4062 18.8333 18.8333 18.8333H2.16665Z" fill="#0C0E5D" style="fill:#0C0E5D;fill:color(display-p3 0.0471 0.0549 0.3647);fill-opacity:1;"/>
</svg>
