<svg width="35" height="36" viewBox="0 0 35 36" fill="none" xmlns="http://www.w3.org/2000/svg">
<path d="M16.4062 8.28C16.1162 8.28 15.838 8.39378 15.6329 8.59632C15.4277 8.79886 15.3125 9.07357 15.3125 9.36C15.3125 9.64643 15.4277 9.92114 15.6329 10.1237C15.838 10.3262 16.1162 10.44 16.4062 10.44C18.2434 10.44 20.0054 11.1606 21.3044 12.4434C22.6035 13.7261 23.3333 15.4659 23.3333 17.28C23.3333 17.5664 23.4486 17.8411 23.6537 18.0437C23.8588 18.2462 24.137 18.36 24.4271 18.36C24.7172 18.36 24.9954 18.2462 25.2005 18.0437C25.4056 17.8411 25.5208 17.5664 25.5208 17.28C25.5208 16.098 25.285 14.9275 24.8269 13.8355C24.3687 12.7435 23.6972 11.7513 22.8507 10.9155C22.0042 10.0798 20.9992 9.41688 19.8932 8.96467C18.7872 8.51246 17.6019 8.27981 16.4048 8.28" fill="black" style="fill:black;fill-opacity:1;"/>
<path fill-rule="evenodd" clip-rule="evenodd" d="M2.91663 17.2786C2.91663 9.92161 8.95704 3.96001 16.4062 3.96001C23.8554 3.96001 29.8958 9.92161 29.8958 17.2771C29.902 20.4386 28.763 23.498 26.6845 25.9027L31.761 30.9139C31.8655 31.0135 31.9489 31.1326 32.0063 31.2644C32.0637 31.3961 32.0939 31.5378 32.0952 31.6812C32.0966 31.8246 32.069 31.9668 32.014 32.0996C31.9591 32.2324 31.8779 32.353 31.7753 32.4544C31.6726 32.5559 31.5506 32.6361 31.4162 32.6905C31.2818 32.7449 31.1378 32.7722 30.9925 32.7711C30.8473 32.7699 30.7038 32.7402 30.5703 32.6836C30.4368 32.6271 30.3161 32.5449 30.2152 32.4418L25.1373 27.4291C22.7022 29.4784 19.6057 30.6009 16.4062 30.5942C8.95704 30.5942 2.91663 24.6341 2.91663 17.2786ZM16.4062 6.12001C14.9071 6.09622 13.4182 6.36724 12.0262 6.91726C10.6342 7.46728 9.36701 8.28532 8.29836 9.32371C7.22972 10.3621 6.38102 11.6001 5.8017 12.9656C5.22239 14.331 4.92404 15.7967 4.92404 17.2771C4.92404 18.7576 5.22239 20.2232 5.8017 21.5887C6.38102 22.9542 7.22972 24.1922 8.29836 25.2305C9.36701 26.2689 10.6342 27.087 12.0262 27.637C13.4182 28.187 14.9071 28.458 16.4062 28.4342C17.9053 28.458 19.3942 28.187 20.7862 27.637C22.1782 27.087 23.4454 26.2689 24.5141 25.2305C25.5827 24.1922 26.4314 22.9542 27.0107 21.5887C27.59 20.2232 27.8884 18.7576 27.8884 17.2771C27.8884 15.7967 27.59 14.331 27.0107 12.9656C26.4314 11.6001 25.5827 10.3621 24.5141 9.32371C23.4454 8.28532 22.1782 7.46728 20.7862 6.91726C19.3942 6.36724 17.9053 6.09622 16.4062 6.12001Z" fill="black" style="fill:black;fill-opacity:1;"/>
</svg>
