<svg width="25" height="25" viewBox="0 0 25 25" fill="none" xmlns="http://www.w3.org/2000/svg">
<path d="M21.7617 22.1367H3.23828C2.9855 22.1367 2.74307 22.0363 2.56432 21.8576C2.38557 21.6788 2.28516 21.4364 2.28516 21.1836V8.20898C2.28516 6.78906 3.38867 5.63867 4.75 5.63867H20.252C21.6133 5.63867 22.7168 6.78906 22.7168 8.20898V21.1836C22.7168 21.7109 22.2891 22.1367 21.7617 22.1367Z" fill="#FAFAFA" stroke="#BDBDBD" style="fill:#FAFAFA;fill:color(display-p3 0.9804 0.9804 0.9804);fill-opacity:1;stroke:#BDBDBD;stroke:color(display-p3 0.7412 0.7412 0.7412);stroke-opacity:1;" stroke-width="0.5625" stroke-miterlimit="10"/>
<path d="M21.8965 0.78125H20.959C20.7637 0.78125 20.6055 0.939454 20.6055 1.13477V1.93359C20.6055 2.06445 20.6797 2.17774 20.791 2.24609C21.1836 2.48047 21.4238 2.94336 21.3203 3.45117C21.2324 3.88086 20.8887 4.22852 20.459 4.31836C20.2939 4.35463 20.1228 4.35342 19.9583 4.31483C19.7938 4.27624 19.64 4.20125 19.5082 4.09538C19.3765 3.98951 19.2702 3.85545 19.1971 3.70306C19.124 3.55068 19.086 3.38385 19.0859 3.21484C19.0859 2.80078 19.3086 2.43945 19.6426 2.24414C19.7539 2.17773 19.8262 2.06445 19.8262 1.93555V1.13477C19.8262 0.939454 19.668 0.78125 19.4727 0.78125H5.52149C5.33008 0.78125 5.17578 0.935547 5.17578 1.12695V1.93945C5.17578 2.06641 5.24805 2.17773 5.35742 2.24219C5.56167 2.36203 5.72305 2.54307 5.81874 2.75969C5.91443 2.9763 5.93958 3.21753 5.89063 3.44922C5.80274 3.87891 5.45899 4.22656 5.0293 4.31641C4.86423 4.35267 4.69314 4.35147 4.5286 4.31288C4.36406 4.27429 4.21027 4.1993 4.07854 4.09343C3.9468 3.98756 3.84049 3.8535 3.76741 3.70111C3.69433 3.54873 3.65634 3.38189 3.65625 3.21289C3.65625 2.79688 3.88281 2.43555 4.2168 2.23828C4.32422 2.17578 4.39453 2.0625 4.39453 1.9375V1.12695C4.39453 0.935547 4.24023 0.78125 4.04883 0.78125H3.10156C2.80371 0.78125 2.51806 0.899571 2.30745 1.11018C2.09684 1.3208 1.97852 1.60645 1.97852 1.9043V9.23242H22.9883L23.0195 1.91016C23.0204 1.76215 22.992 1.61542 22.936 1.47843C22.88 1.34144 22.7974 1.2169 22.693 1.11196C22.5886 1.00703 22.4645 0.923789 22.3278 0.867031C22.1911 0.810272 22.0445 0.781119 21.8965 0.78125Z" fill="#F44336" style="fill:#F44336;fill:color(display-p3 0.9569 0.2627 0.2118);fill-opacity:1;"/>
<path d="M8.80664 3.01953H9.61133V5.72266C9.61133 5.9707 9.55664 6.19141 9.44727 6.38086C9.33789 6.57031 9.18164 6.71875 8.98242 6.82227C8.78125 6.92578 8.55664 6.97852 8.30469 6.97852C7.89258 6.97852 7.57031 6.87305 7.33984 6.66406C7.10938 6.45508 6.99414 6.15625 6.99414 5.77344H7.80469C7.80469 5.96484 7.8457 6.10547 7.92578 6.19727C8.00586 6.28906 8.13281 6.33398 8.30664 6.33398C8.46094 6.33398 8.58203 6.28125 8.67383 6.17578C8.76562 6.07031 8.81055 5.91992 8.81055 5.72461V3.01953H8.80664ZM11.9863 6.62891C11.7949 6.86133 11.5313 6.97656 11.1934 6.97656C10.8828 6.97656 10.6445 6.88672 10.4824 6.70898C10.3184 6.53125 10.2344 6.26758 10.2324 5.92383V4.02344H11.0078V5.90039C11.0078 6.20312 11.1445 6.35352 11.4199 6.35352C11.6836 6.35352 11.8633 6.26172 11.9609 6.08008V4.02344H12.7383V6.92383H12.0098L11.9863 6.62891ZM14.1387 6.92383H13.3613V2.80664H14.1387V6.92383ZM15.8594 5.82617L16.3965 4.02148H17.2285L16.0625 7.37305L15.998 7.52539C15.8242 7.9043 15.5391 8.09375 15.1406 8.09375C15.0273 8.09375 14.9141 8.07617 14.7969 8.04297V7.45508L14.9141 7.45703C15.0605 7.45703 15.1699 7.43555 15.2422 7.39062C15.3145 7.3457 15.3711 7.27148 15.4121 7.16797L15.5039 6.92969L14.4883 4.02148H15.3223L15.8594 5.82617Z" fill="white" style="fill:white;fill-opacity:1;"/>
<path d="M10.3945 19.9824H8.7207V13.5273L6.7207 14.1465V12.7852L10.2148 11.5332H10.3945V19.9824ZM18.2793 12.4805L15.0176 19.9824H13.25L16.5176 12.8965H12.3223V11.5469H18.2793V12.4805Z" fill="black" style="fill:black;fill-opacity:1;"/>
</svg>
