<svg width="34" height="34" viewBox="0 0 34 34" fill="none" xmlns="http://www.w3.org/2000/svg">
<g filter="url(#filter0_d_601_142)">
<path d="M26.1475 14.875H21.2913C20.6513 14.8776 20.0384 15.1331 19.5861 15.5857C19.1337 16.0383 18.8786 16.6513 18.8763 17.2913V22.1475C18.8759 22.4647 18.9382 22.7789 19.0594 23.0721C19.1807 23.3652 19.3585 23.6316 19.5829 23.8559C19.8072 24.0802 20.0735 24.2581 20.3667 24.3793C20.6598 24.5006 20.974 24.5628 21.2913 24.5625H26.1475C26.7879 24.5622 27.402 24.3076 27.8548 23.8548C28.3076 23.402 28.5622 22.7879 28.5625 22.1475V17.2913C28.5628 16.974 28.5006 16.6598 28.3793 16.3667C28.2581 16.0735 28.0802 15.8072 27.8559 15.5829C27.6316 15.3585 27.3652 15.1807 27.0721 15.0594C26.7789 14.9382 26.4647 14.8759 26.1475 14.8763M26.1475 1.4375H7.8525C7.53527 1.43717 7.22108 1.49941 6.92793 1.62066C6.63478 1.74191 6.36843 1.91979 6.14411 2.1441C5.91979 2.36842 5.74191 2.63478 5.62066 2.92793C5.49942 3.22108 5.43717 3.53527 5.4375 3.8525V8.70875C5.43701 9.02609 5.49913 9.34041 5.6203 9.6337C5.74148 9.927 5.91933 10.1935 6.14366 10.418C6.368 10.6424 6.63441 10.8204 6.92764 10.9417C7.22088 11.063 7.53516 11.1253 7.8525 11.125H26.1475C26.4647 11.1253 26.7789 11.0631 27.0721 10.9418C27.3652 10.8206 27.6316 10.6427 27.8559 10.4184C28.0802 10.1941 28.2581 9.92772 28.3793 9.63457C28.5006 9.34142 28.5628 9.02724 28.5625 8.71V3.8525C28.5628 3.53527 28.5006 3.22108 28.3793 2.92793C28.2581 2.63478 28.0802 2.36842 27.8559 2.1441C27.6316 1.91979 27.3652 1.74191 27.0721 1.62066C26.7789 1.49941 26.4647 1.43717 26.1475 1.4375ZM12.7088 14.875H7.8525C7.53516 14.8747 7.22088 14.937 6.92764 15.0583C6.63441 15.1796 6.368 15.3576 6.14366 15.582C5.91933 15.8065 5.74148 16.073 5.6203 16.3663C5.49913 16.6596 5.43701 16.9739 5.4375 17.2913V22.1475C5.43717 22.4647 5.49942 22.7789 5.62066 23.0721C5.74191 23.3652 5.91979 23.6316 6.14411 23.8559C6.36843 24.0802 6.63478 24.2581 6.92793 24.3793C7.22108 24.5006 7.53527 24.5628 7.8525 24.5625H12.7088C13.026 24.5628 13.3402 24.5006 13.6333 24.3793C13.9265 24.2581 14.1928 24.0802 14.4171 23.8559C14.6415 23.6316 14.8193 23.3652 14.9406 23.0721C15.0618 22.7789 15.1241 22.4647 15.1238 22.1475V17.2913C15.1214 16.6513 14.8663 16.0383 14.4139 15.5857C13.9616 15.1331 13.3487 14.8776 12.7088 14.875Z" stroke="black" style="stroke:black;stroke-opacity:1;" stroke-width="1.5" stroke-linecap="round" stroke-linejoin="round" shape-rendering="crispEdges"/>
</g>
<defs>
<filter id="filter0_d_601_142" x="0.6875" y="0.6875" width="32.625" height="32.625" filterUnits="userSpaceOnUse" color-interpolation-filters="sRGB">
<feFlood flood-opacity="0" result="BackgroundImageFix"/>
<feColorMatrix in="SourceAlpha" type="matrix" values="0 0 0 0 0 0 0 0 0 0 0 0 0 0 0 0 0 0 127 0" result="hardAlpha"/>
<feOffset dy="4"/>
<feGaussianBlur stdDeviation="2"/>
<feComposite in2="hardAlpha" operator="out"/>
<feColorMatrix type="matrix" values="0 0 0 0 0 0 0 0 0 0 0 0 0 0 0 0 0 0 0.25 0"/>
<feBlend mode="normal" in2="BackgroundImageFix" result="effect1_dropShadow_601_142"/>
<feBlend mode="normal" in="SourceGraphic" in2="effect1_dropShadow_601_142" result="shape"/>
</filter>
</defs>
</svg>
