<svg width="11" height="11" viewBox="0 0 11 11" fill="none" xmlns="http://www.w3.org/2000/svg">
<path d="M1.70833 9.29167H2.48021L7.775 3.99688L7.00313 3.225L1.70833 8.51979V9.29167ZM0.625 10.375V8.07292L7.775 0.936458C7.88333 0.837153 8.00295 0.760417 8.13385 0.70625C8.26476 0.652083 8.40243 0.625 8.54688 0.625C8.69132 0.625 8.83125 0.652083 8.96667 0.70625C9.10208 0.760417 9.21945 0.841667 9.31875 0.95L10.0635 1.70833C10.1719 1.80764 10.2509 1.925 10.3005 2.06042C10.3502 2.19583 10.375 2.33125 10.375 2.46667C10.375 2.61111 10.3502 2.74878 10.3005 2.87969C10.2509 3.01059 10.1719 3.13021 10.0635 3.23854L2.92708 10.375H0.625ZM7.38229 3.61771L7.00313 3.225L7.775 3.99688L7.38229 3.61771Z" fill="#1D1B20" style="fill:#1D1B20;fill:color(display-p3 0.1137 0.1059 0.1255);fill-opacity:1;"/>
</svg>
