<svg width="24" height="24" viewBox="0 0 24 24" fill="none" xmlns="http://www.w3.org/2000/svg">
<path d="M3.25 20.75H5.03125L17.25 8.53125L15.4688 6.75L3.25 18.9687V20.75ZM0.75 23.25V17.9375L17.25 1.46875C17.5 1.23958 17.776 1.0625 18.0781 0.9375C18.3802 0.8125 18.6979 0.75 19.0312 0.75C19.3646 0.75 19.6875 0.8125 20 0.9375C20.3125 1.0625 20.5833 1.25 20.8125 1.5L22.5313 3.25C22.7813 3.47917 22.9635 3.75 23.0781 4.0625C23.1927 4.375 23.25 4.6875 23.25 5C23.25 5.33333 23.1927 5.65104 23.0781 5.95312C22.9635 6.25521 22.7813 6.53125 22.5313 6.78125L6.0625 23.25H0.75ZM16.3438 7.65625L15.4688 6.75L17.25 8.53125L16.3438 7.65625Z" fill="#1D1B20" style="fill:#1D1B20;fill:color(display-p3 0.1137 0.1059 0.1255);fill-opacity:1;"/>
</svg>
