<svg width="30" height="30" viewBox="0 0 30 30" fill="none" xmlns="http://www.w3.org/2000/svg">
<path d="M26.25 10C26.913 10 27.5489 10.2634 28.0178 10.7322C28.4866 11.2011 28.75 11.837 28.75 12.5V17.5C28.75 18.163 28.4866 18.7989 28.0178 19.2678C27.5489 19.7366 26.913 20 26.25 20H24.9225C24.618 22.4167 23.4419 24.6392 21.615 26.2503C19.788 27.8614 17.4358 28.7502 15 28.75V26.25C16.9891 26.25 18.8968 25.4598 20.3033 24.0533C21.7098 22.6468 22.5 20.7391 22.5 18.75V11.25C22.5 9.26087 21.7098 7.35322 20.3033 5.9467C18.8968 4.54017 16.9891 3.75 15 3.75C13.0109 3.75 11.1032 4.54017 9.6967 5.9467C8.29018 7.35322 7.5 9.26087 7.5 11.25V20H3.75C3.08696 20 2.45107 19.7366 1.98223 19.2678C1.51339 18.7989 1.25 18.163 1.25 17.5V12.5C1.25 11.837 1.51339 11.2011 1.98223 10.7322C2.45107 10.2634 3.08696 10 3.75 10H5.0775C5.38254 7.58362 6.55885 5.36159 8.38572 3.75084C10.2126 2.1401 12.5644 1.25134 15 1.25134C17.4356 1.25134 19.7874 2.1401 21.6143 3.75084C23.4411 5.36159 24.6175 7.58362 24.9225 10H26.25ZM9.7 19.7312L11.025 17.6112C12.2163 18.3577 13.5942 18.7524 15 18.75C16.4058 18.7524 17.7837 18.3577 18.975 17.6112L20.3 19.7312C18.7117 20.7266 16.8745 21.2531 15 21.25C13.1255 21.2531 11.2883 20.7266 9.7 19.7312Z" fill="black" style="fill:black;fill-opacity:1;"/>
</svg>
