<svg width="25" height="25" viewBox="0 0 25 25" fill="none" xmlns="http://www.w3.org/2000/svg">
<path d="M21.875 8.33339C22.4276 8.33339 22.9575 8.55289 23.3482 8.94359C23.7389 9.33429 23.9584 9.86419 23.9584 10.4167V14.5834C23.9584 15.1359 23.7389 15.6658 23.3482 16.0565C22.9575 16.4472 22.4276 16.6667 21.875 16.6667H20.7688C20.515 18.6807 19.535 20.5328 18.0125 21.8753C16.49 23.2179 14.5299 23.9586 12.5 23.9584V21.8751C14.1576 21.8751 15.7473 21.2166 16.9194 20.0445C18.0915 18.8724 18.75 17.2827 18.75 15.6251V9.37506C18.75 7.71746 18.0915 6.12774 16.9194 4.95564C15.7473 3.78354 14.1576 3.12506 12.5 3.12506C10.8424 3.12506 9.25271 3.78354 8.0806 4.95564C6.9085 6.12774 6.25002 7.71746 6.25002 9.37506V16.6667H3.12502C2.57249 16.6667 2.04258 16.4472 1.65188 16.0565C1.26118 15.6658 1.04169 15.1359 1.04169 14.5834V10.4167C1.04169 9.86419 1.26118 9.33429 1.65188 8.94359C2.04258 8.55289 2.57249 8.33339 3.12502 8.33339H4.23127C4.48547 6.31974 5.46573 4.46805 6.98812 3.12576C8.51051 1.78347 10.4704 1.04285 12.5 1.04285C14.5297 1.04285 16.4895 1.78347 18.0119 3.12576C19.5343 4.46805 20.5146 6.31974 20.7688 8.33339H21.875ZM8.08335 16.4428L9.18752 14.6761C10.1803 15.2981 11.3285 15.6271 12.5 15.6251C13.6715 15.6271 14.8198 15.2981 15.8125 14.6761L16.9167 16.4428C15.5931 17.2722 14.0621 17.711 12.5 17.7084C10.938 17.711 9.40697 17.2722 8.08335 16.4428Z" fill="black" style="fill:black;fill-opacity:1;"/>
</svg>
