<svg width="18" height="18" viewBox="0 0 18 18" fill="none" xmlns="http://www.w3.org/2000/svg">
<path d="M7.425 14.25C6.2125 14.25 5.17188 13.8562 4.30313 13.0688C3.43438 12.2812 3 11.3 3 10.125C3 8.95 3.43438 7.96875 4.30313 7.18125C5.17188 6.39375 6.2125 6 7.425 6H12.15L10.2 4.05L11.25 3L15 6.75L11.25 10.5L10.2 9.45L12.15 7.5H7.425C6.6375 7.5 5.95313 7.75 5.37188 8.25C4.79063 8.75 4.5 9.375 4.5 10.125C4.5 10.875 4.79063 11.5 5.37188 12C5.95313 12.5 6.6375 12.75 7.425 12.75H12.75V14.25H7.425Z" fill="#D00F0F" style="fill:#D00F0F;fill:color(display-p3 0.8157 0.0588 0.0588);fill-opacity:1;"/>
</svg>
