<svg width="14" height="13" viewBox="0 0 14 13" fill="none" xmlns="http://www.w3.org/2000/svg">
<path d="M10.3215 11.375L6.52983 7.58334L5.25691 8.85626C5.32913 8.99168 5.37878 9.13612 5.40587 9.28959C5.43295 9.44307 5.44649 9.59654 5.44649 9.75001C5.44649 10.3458 5.23434 10.8559 4.81003 11.2802C4.38573 11.7045 3.87566 11.9167 3.27983 11.9167C2.68399 11.9167 2.17392 11.7045 1.74962 11.2802C1.32531 10.8559 1.11316 10.3458 1.11316 9.75001C1.11316 9.15418 1.32531 8.64411 1.74962 8.2198C2.17392 7.7955 2.68399 7.58334 3.27983 7.58334C3.4333 7.58334 3.58677 7.59689 3.74024 7.62397C3.89371 7.65105 4.03816 7.70071 4.17358 7.77293L5.44649 6.50001L4.17358 5.22709C4.03816 5.29932 3.89371 5.34897 3.74024 5.37605C3.58677 5.40314 3.4333 5.41668 3.27983 5.41668C2.68399 5.41668 2.17392 5.20452 1.74962 4.78022C1.32531 4.35591 1.11316 3.84584 1.11316 3.25001C1.11316 2.65418 1.32531 2.14411 1.74962 1.7198C2.17392 1.2955 2.68399 1.08334 3.27983 1.08334C3.87566 1.08334 4.38573 1.2955 4.81003 1.7198C5.23434 2.14411 5.44649 2.65418 5.44649 3.25001C5.44649 3.40348 5.43295 3.55695 5.40587 3.71043C5.37878 3.8639 5.32913 4.00834 5.25691 4.14376L11.9465 10.8333V11.375H10.3215ZM8.15483 5.95834L7.07149 4.87501L10.3215 1.62501H11.9465V2.16668L8.15483 5.95834ZM3.27983 4.33334C3.57774 4.33334 3.83278 4.22727 4.04493 4.01511C4.25708 3.80296 4.36316 3.54793 4.36316 3.25001C4.36316 2.95209 4.25708 2.69706 4.04493 2.48491C3.83278 2.27275 3.57774 2.16668 3.27983 2.16668C2.98191 2.16668 2.72687 2.27275 2.51472 2.48491C2.30257 2.69706 2.19649 2.95209 2.19649 3.25001C2.19649 3.54793 2.30257 3.80296 2.51472 4.01511C2.72687 4.22727 2.98191 4.33334 3.27983 4.33334ZM6.52983 6.77084C6.60205 6.77084 6.66524 6.74376 6.71941 6.68959C6.77358 6.63543 6.80066 6.57223 6.80066 6.50001C6.80066 6.42779 6.77358 6.36459 6.71941 6.31043C6.66524 6.25626 6.60205 6.22918 6.52983 6.22918C6.4576 6.22918 6.39441 6.25626 6.34024 6.31043C6.28608 6.36459 6.25899 6.42779 6.25899 6.50001C6.25899 6.57223 6.28608 6.63543 6.34024 6.68959C6.39441 6.74376 6.4576 6.77084 6.52983 6.77084ZM3.27983 10.8333C3.57774 10.8333 3.83278 10.7273 4.04493 10.5151C4.25708 10.303 4.36316 10.0479 4.36316 9.75001C4.36316 9.45209 4.25708 9.19706 4.04493 8.98491C3.83278 8.77275 3.57774 8.66668 3.27983 8.66668C2.98191 8.66668 2.72687 8.77275 2.51472 8.98491C2.30257 9.19706 2.19649 9.45209 2.19649 9.75001C2.19649 10.0479 2.30257 10.303 2.51472 10.5151C2.72687 10.7273 2.98191 10.8333 3.27983 10.8333Z" fill="#49454F" style="fill:#49454F;fill:color(display-p3 0.2863 0.2706 0.3098);fill-opacity:1;"/>
</svg>
