<svg width="47" height="47" viewBox="0 0 47 47" fill="none" xmlns="http://www.w3.org/2000/svg">
<path d="M23.5 31.3333C21.3184 31.3333 19.4678 30.5735 17.9481 29.0538C16.4272 27.5316 15.6667 25.6803 15.6667 23.5C15.6667 21.3197 16.4272 19.4691 17.9481 17.9481C19.4691 16.4272 21.3197 15.6667 23.5 15.6667C25.6803 15.6667 27.5316 16.4272 29.0538 17.9481C30.5761 19.4691 31.3359 21.3197 31.3333 23.5C31.3307 25.6803 30.5709 27.5316 29.0538 29.0538C27.5368 30.5761 25.6855 31.3359 23.5 31.3333ZM9.79167 24.4792H2.9375V22.5208H9.79167V24.4792ZM44.0625 24.4792H37.2083V22.5208H44.0625V24.4792ZM22.5208 9.79167V2.9375H24.4792V9.79167H22.5208ZM22.5208 44.0625V37.2083H24.4792V44.0625H22.5208ZM13.2109 14.4995L8.98092 10.3909L10.342 8.93196L14.476 13.113L13.2109 14.4995ZM36.66 38.068L32.5142 33.8753L33.791 32.5005L38.021 36.6091L36.66 38.068ZM32.5005 13.209L36.6091 8.97896L38.068 10.34L33.887 14.474L32.5005 13.209ZM8.93392 36.66L13.1248 32.5142L14.4251 33.791L10.3517 38.0583L8.93392 36.66Z" fill="#E2D1D1" style="fill:#E2D1D1;fill:color(display-p3 0.8846 0.8208 0.8208);fill-opacity:1;"/>
</svg>
