<svg width="30" height="30" viewBox="0 0 30 30" fill="none" xmlns="http://www.w3.org/2000/svg">
<path d="M21.875 23.7563V6.24376C21.8751 6.06268 21.8261 5.88496 21.7331 5.72958C21.6401 5.57419 21.5066 5.44698 21.347 5.36151C21.1873 5.27604 21.0075 5.23552 20.8266 5.24429C20.6457 5.25305 20.4706 5.31076 20.32 5.41127L18.7325 6.47002C18.556 6.58758 18.3466 6.64597 18.1348 6.63675C17.9229 6.62754 17.7194 6.5512 17.5538 6.41877L15.625 4.87502C15.4476 4.73301 15.2272 4.65564 15 4.65564C14.7728 4.65564 14.5524 4.73301 14.375 4.87502L12.4463 6.41877C12.2804 6.5513 12.0766 6.62759 11.8644 6.63658C11.6523 6.64557 11.4428 6.58679 11.2662 6.46877L9.67875 5.41127C9.52813 5.3111 9.35316 5.25366 9.17247 5.24508C8.99179 5.23649 8.81216 5.27707 8.65272 5.3625C8.49328 5.44793 8.35999 5.57501 8.26706 5.7302C8.17413 5.88539 8.12503 6.06288 8.125 6.24376V23.7563C8.12488 23.9373 8.17394 24.1151 8.26693 24.2705C8.35993 24.4258 8.49337 24.5531 8.65301 24.6385C8.81266 24.724 8.99252 24.7645 9.17339 24.7557C9.35427 24.747 9.52936 24.6893 9.68 24.5888L11.2675 23.5313C11.4439 23.4135 11.6531 23.3549 11.865 23.3639C12.0769 23.3729 12.2805 23.449 12.4463 23.5813L14.375 25.125C14.5524 25.267 14.7728 25.3444 15 25.3444C15.2272 25.3444 15.4476 25.267 15.625 25.125L17.5538 23.5813C17.7196 23.4487 17.9234 23.3724 18.1356 23.3635C18.3477 23.3545 18.5572 23.4132 18.7338 23.5313L20.3212 24.5888C20.4719 24.6889 20.6468 24.7464 20.8275 24.755C21.0082 24.7635 21.1878 24.723 21.3473 24.6375C21.5067 24.5521 21.64 24.425 21.7329 24.2698C21.8259 24.1146 21.875 23.9372 21.875 23.7563Z" stroke="black" style="stroke:black;stroke-opacity:1;" stroke-width="1.25"/>
<path d="M11.875 11.875H18.125M11.875 15H18.125M11.875 18.125H18.125" stroke="black" style="stroke:black;stroke-opacity:1;" stroke-width="1.25" stroke-linecap="round"/>
</svg>
