<svg width="28" height="27" viewBox="0 0 28 27" fill="none" xmlns="http://www.w3.org/2000/svg">
<path d="M11.9936 19.7167L13.7796 21.2598C14.1711 21.5986 14.2157 22.1927 13.8809 22.5882C13.8012 22.6817 13.7039 22.7585 13.5944 22.8143C13.485 22.87 13.3656 22.9035 13.2431 22.9129C13.1207 22.9223 12.9975 22.9074 12.8809 22.8691C12.7642 22.8307 12.6562 22.7697 12.5633 22.6894L10.4505 20.8643C10.3479 20.7754 10.2656 20.6656 10.2092 20.5421C10.1528 20.4186 10.1237 20.2845 10.1238 20.1488V10.7163L2.23711 1.55925C1.70926 0.94905 2.14126 0 2.94316 0H25.3694C26.1713 0 26.6006 0.9504 26.0754 1.55925L18.1779 10.7177V26.0577C18.1779 26.5788 17.7594 27 17.2437 27C17.1205 26.9995 16.9986 26.9747 16.885 26.927C16.7713 26.8794 16.6682 26.8098 16.5814 26.7223C16.4947 26.6348 16.426 26.5311 16.3794 26.4171C16.3327 26.303 16.309 26.1809 16.3095 26.0577V10.3653C16.3093 10.1383 16.3907 9.91885 16.539 9.747L23.3201 1.88325H4.98976L11.7641 9.747C11.9123 9.91885 11.9938 10.1383 11.9936 10.3653V19.7167Z" fill="black" style="fill:black;fill-opacity:1;"/>
</svg>
