<svg width="24" height="24" viewBox="0 0 24 24" fill="none" xmlns="http://www.w3.org/2000/svg">
<path d="M11.19 3.00003C10.1017 2.99736 9.02349 3.20928 8.01712 3.62367C7.01075 4.03806 6.09594 4.64678 5.32503 5.41503C4.10619 6.62051 3.29795 8.17925 3.01503 9.87003C2.9785 10.0641 2.86736 10.2361 2.70545 10.3491C2.54354 10.4621 2.34378 10.5072 2.14903 10.4746C1.95428 10.442 1.78007 10.3344 1.66378 10.1748C1.54749 10.0152 1.4984 9.8164 1.52703 9.62103C1.91844 7.34492 3.10343 5.28103 4.87179 3.79551C6.64014 2.30998 8.87753 1.49886 11.187 1.50603C12.4831 1.50466 13.7667 1.75975 14.9638 2.2566C16.1609 2.75346 17.2478 3.48226 18.162 4.40103L20.997 7.71603V3.75603C20.997 3.55592 21.0765 3.36401 21.218 3.22252C21.3595 3.08102 21.5514 3.00153 21.7515 3.00153C21.9516 3.00153 22.1436 3.08102 22.285 3.22252C22.4265 3.36401 22.506 3.55592 22.506 3.75603V9.75603C22.506 9.8549 22.4865 9.9528 22.4485 10.0441C22.4105 10.1354 22.3549 10.2183 22.2848 10.288C22.2147 10.3577 22.1314 10.4128 22.0399 10.4502C21.9484 10.4877 21.8504 10.5066 21.7515 10.506H15.7665C15.6677 10.5066 15.5697 10.4877 15.4781 10.4502C15.3866 10.4128 15.3034 10.3577 15.2333 10.288C15.1632 10.2183 15.1075 10.1354 15.0695 10.0441C15.0316 9.9528 15.012 9.8549 15.012 9.75603C15.012 9.34353 15.3495 9.00603 15.7665 9.00603H20.1315L17.0415 5.40603C15.4849 3.86503 13.3819 3.00227 11.1915 3.00603L11.19 3.00003ZM12.825 21C13.9134 21.0027 14.9916 20.7908 15.9979 20.3764C17.0043 19.962 17.9191 19.3533 18.69 18.585C19.9089 17.3795 20.7171 15.8208 21 14.13C21.0441 13.9433 21.1576 13.7804 21.3174 13.6742C21.4772 13.568 21.6713 13.5265 21.8606 13.5582C22.0498 13.5899 22.2199 13.6923 22.3364 13.8447C22.4529 13.9971 22.5071 14.1881 22.488 14.379C22.0966 16.6551 20.9116 18.719 19.1433 20.2045C17.3749 21.6901 15.1375 22.5012 12.828 22.494C11.5319 22.4954 10.2484 22.2403 9.05127 21.7435C7.85418 21.2466 6.76723 20.5178 5.85303 19.599L3.01803 16.284V20.244C3.01848 20.3933 2.97443 20.5394 2.89151 20.6636C2.80859 20.7878 2.69056 20.8844 2.55247 20.9413C2.41437 20.9981 2.26249 21.0125 2.11619 20.9826C1.96988 20.9527 1.8358 20.8799 1.73103 20.7735C1.66089 20.704 1.60517 20.6213 1.56707 20.5302C1.52897 20.439 1.50925 20.3413 1.50903 20.2425V14.2425C1.50903 13.8285 1.84653 13.4925 2.26353 13.4925H8.25003C8.66703 13.4925 9.00453 13.8285 9.00453 14.2425C9.00453 14.6565 8.66703 14.9925 8.25003 14.9925H3.88503L6.97503 18.5925C8.53168 20.1335 10.6346 20.9963 12.825 20.9925V21Z" fill="black" style="fill:black;fill-opacity:1;"/>
</svg>
