<svg width="30" height="30" viewBox="0 0 30 30" fill="none" xmlns="http://www.w3.org/2000/svg">
<path d="M16.3375 13.0125C17.0968 11.9516 17.5051 10.6796 17.5051 9.37498C17.5051 8.07034 17.0968 6.79841 16.3375 5.73749C17.0485 5.25315 17.8897 4.99598 18.75 4.99998C19.9103 4.99998 21.0231 5.46092 21.8436 6.28139C22.6641 7.10186 23.125 8.21466 23.125 9.37498C23.125 10.5353 22.6641 11.6481 21.8436 12.4686C21.0231 13.289 19.9103 13.75 18.75 13.75C17.8897 13.754 17.0485 13.4968 16.3375 13.0125ZM6.875 9.37498C6.875 8.50969 7.13159 7.66383 7.61232 6.94437C8.09305 6.2249 8.77633 5.66415 9.57576 5.33301C10.3752 5.00188 11.2549 4.91524 12.1035 5.08405C12.9522 5.25286 13.7317 5.66954 14.3436 6.28139C14.9554 6.89325 15.3721 7.6728 15.5409 8.52146C15.7097 9.37013 15.6231 10.2498 15.292 11.0492C14.9608 11.8487 14.4001 12.5319 13.6806 13.0127C12.9612 13.4934 12.1153 13.75 11.25 13.75C10.0897 13.75 8.97688 13.289 8.15641 12.4686C7.33594 11.6481 6.875 10.5353 6.875 9.37498ZM9.375 9.37498C9.375 9.74582 9.48497 10.1083 9.69099 10.4167C9.89702 10.725 10.1899 10.9653 10.5325 11.1073C10.8751 11.2492 11.2521 11.2863 11.6158 11.214C11.9795 11.1416 12.3136 10.963 12.5758 10.7008C12.838 10.4386 13.0166 10.1045 13.089 9.74078C13.1613 9.37706 13.1242 9.00006 12.9823 8.65745C12.8404 8.31484 12.6 8.02201 12.2917 7.81598C11.9834 7.60995 11.6208 7.49998 11.25 7.49998C10.7527 7.49998 10.2758 7.69753 9.92417 8.04916C9.57254 8.40079 9.375 8.8777 9.375 9.37498ZM20 21.25V23.75H2.5V21.25C2.5 21.25 2.5 16.25 11.25 16.25C20 16.25 20 21.25 20 21.25ZM17.5 21.25C17.325 20.275 15.8375 18.75 11.25 18.75C6.6625 18.75 5.0875 20.3875 5 21.25M19.9375 16.25C20.7036 16.8459 21.33 17.6023 21.7727 18.4661C22.2154 19.3298 22.4636 20.2801 22.5 21.25V23.75H27.5V21.25C27.5 21.25 27.5 16.7125 19.925 16.25H19.9375Z" fill="black" style="fill:black;fill-opacity:1;"/>
</svg>
