<svg width="26" height="19" viewBox="0 0 26 19" fill="none" xmlns="http://www.w3.org/2000/svg">
<path d="M14.3375 8.01248C15.0968 6.95156 15.5051 5.67963 15.5051 4.37498C15.5051 3.07034 15.0968 1.79841 14.3375 0.737485C15.0485 0.253149 15.8897 -0.00401646 16.75 -1.50395e-05C17.9103 -1.50395e-05 19.0231 0.460921 19.8436 1.28139C20.6641 2.10186 21.125 3.21466 21.125 4.37498C21.125 5.53531 20.6641 6.64811 19.8436 7.46858C19.0231 8.28905 17.9103 8.74998 16.75 8.74998C15.8897 8.75399 15.0485 8.49682 14.3375 8.01248ZM4.875 4.37498C4.875 3.50969 5.13159 2.66383 5.61232 1.94437C6.09305 1.2249 6.77633 0.664146 7.57576 0.333012C8.37519 0.00187884 9.25485 -0.0847608 10.1035 0.0840496C10.9522 0.25286 11.7317 0.669538 12.3436 1.28139C12.9554 1.89325 13.3721 2.6728 13.5409 3.52146C13.7097 4.37013 13.6231 5.2498 13.292 6.04922C12.9608 6.84865 12.4001 7.53193 11.6806 8.01266C10.9612 8.4934 10.1153 8.74998 9.25 8.74998C8.08968 8.74998 6.97688 8.28905 6.15641 7.46858C5.33594 6.64811 4.875 5.53531 4.875 4.37498ZM7.375 4.37498C7.375 4.74582 7.48497 5.10834 7.69099 5.41668C7.89702 5.72502 8.18986 5.96534 8.53247 6.10726C8.87508 6.24917 9.25208 6.2863 9.6158 6.21396C9.97951 6.14161 10.3136 5.96303 10.5758 5.70081C10.838 5.43859 11.0166 5.10449 11.089 4.74078C11.1613 4.37706 11.1242 4.00006 10.9823 3.65745C10.8404 3.31484 10.6 3.02201 10.2917 2.81598C9.98335 2.60995 9.62084 2.49998 9.25 2.49998C8.75272 2.49998 8.27581 2.69753 7.92417 3.04916C7.57254 3.40079 7.375 3.8777 7.375 4.37498ZM18 16.25V18.75H0.5V16.25C0.5 16.25 0.5 11.25 9.25 11.25C18 11.25 18 16.25 18 16.25ZM15.5 16.25C15.325 15.275 13.8375 13.75 9.25 13.75C4.6625 13.75 3.0875 15.3875 3 16.25M17.9375 11.25C18.7036 11.8459 19.33 12.6023 19.7727 13.4661C20.2154 14.3298 20.4636 15.2801 20.5 16.25V18.75H25.5V16.25C25.5 16.25 25.5 11.7125 17.925 11.25H17.9375Z" fill="black" style="fill:black;fill-opacity:1;"/>
</svg>
