<svg width="19" height="21" viewBox="0 0 19 21" fill="none" xmlns="http://www.w3.org/2000/svg">
<path d="M9.50001 9.5625C6.66251 9.5625 6.08751 5.2625 6.08751 5.2625C5.75001 3.025 6.77501 0.5 9.46251 0.5C12.1625 0.5 13.1875 3.025 12.85 5.2625C12.85 5.2625 12.3375 9.5625 9.50001 9.5625ZM9.50001 12.775L12.9 10.5C15.8875 10.5 18.55 13.4125 18.55 16.1625V19.275C18.55 19.275 13.9875 20.6875 9.50001 20.6875C4.93751 20.6875 0.450012 19.275 0.450012 19.275V16.1625C0.450012 13.35 2.87501 10.5625 6.03751 10.5625L9.50001 12.775Z" fill="#0C0E5D" style="fill:#0C0E5D;fill:color(display-p3 0.0471 0.0549 0.3647);fill-opacity:1;"/>
</svg>
