<svg width="38" height="38" viewBox="0 0 38 38" fill="none" xmlns="http://www.w3.org/2000/svg">
<path d="M33.25 20.2508C33.0009 22.946 31.9894 25.5145 30.3339 27.6557C28.6783 29.797 26.4472 31.4225 23.9015 32.342C21.3558 33.2615 18.6009 33.437 15.9592 32.848C13.3174 32.2589 10.898 30.9297 8.98416 29.0158C7.07027 27.1019 5.74104 24.6826 5.15199 22.0408C4.56294 19.399 4.73843 16.6441 5.65794 14.0985C6.57746 11.5528 8.20295 9.32166 10.3442 7.66611C12.4855 6.01055 15.054 4.99907 17.7491 4.75C16.1712 6.88476 15.4119 9.51496 15.6093 12.1622C15.8067 14.8095 16.9477 17.298 18.8249 19.1751C20.702 21.0522 23.1905 22.1932 25.8377 22.3907C28.485 22.5881 31.1152 21.8288 33.25 20.2508Z" stroke="#0C0E5D" style="stroke:#0C0E5D;stroke:color(display-p3 0.0471 0.0549 0.3647);stroke-opacity:1;" stroke-width="3.5" stroke-linecap="round" stroke-linejoin="round"/>
</svg>
